HIERARCHY
ROOT ui
{
	 OFFSET 0 0 0
	 CHANNELS 3 XPosition YPosition Z Position
	 EndSite
	 {
	 OFFSET 0 -1 0
	 }
}
ROOT li
{
	 OFFSET 0 0 0
	 CHANNELS 3 XPosition YPosition Z Position
	 EndSite
	 {
	 OFFSET 0 -1 0
	 }
}
ROOT ul
{
	 OFFSET 0 0 0
	 CHANNELS 3 XPosition YPosition Z Position
	 EndSite
	 {
	 OFFSET 0 -1 0
	 }
}
ROOT ll
{
	 OFFSET 0 0 0
	 CHANNELS 3 XPosition YPosition Z Position
	 EndSite
	 {
	 OFFSET 0 -1 0
	 }
}
ROOT tt
{
	 OFFSET 0 0 0
	 CHANNELS 3 XPosition YPosition Z Position
	 EndSite
	 {
	 OFFSET 0 -1 0
	 }
}
ROOT tb
{
	 OFFSET 0 0 0
	 CHANNELS 3 XPosition YPosition Z Position
	 EndSite
	 {
	 OFFSET 0 -1 0
	 }
}
ROOT td
{
	 OFFSET 0 0 0
	 CHANNELS 3 XPosition YPosition Z Position
	 EndSite
	 {
	 OFFSET 0 -1 0
	 }
}
ROOT v
{
	 OFFSET 0 0 0
	 CHANNELS 3 XPosition YPosition Z Position
	 EndSite
	 {
	 OFFSET 0 -1 0
	 }
}
ROOT bn
{
	 OFFSET 0 0 0
	 CHANNELS 3 XPosition YPosition Z Position
	 EndSite
	 {
	 OFFSET 0 -1 0
	 }
}
MOTION
Frames: 10
Frame Time: 0.002
0.0028200669288635256	-0.006256792068481445	0		0.5243193969726563	-2.5435927734375	0		-1.0028629150390624	-0.04956716537475586	0		-0.6515248413085938	-2.59758740234375	0		1.658584228515625	-1.2099136962890624	0		3.269763427734375	-1.060838134765625	0		4.74743701171875	-0.433900390625	0		5.9584443359375	0.4396911926269531	0		-0.13741500854492186	5.92620263671875	0		
0.014020329475402831	0.0034629549980163573	0		0.5639703369140625	-2.5762587890625	0		-1.0027972412109376	-0.04970667266845703	0		-0.63242236328125	-2.59698193359375	0		1.6935355224609374	-1.2195025634765626	0		3.291918701171875	-1.0552357177734375	0		4.73571142578125	-0.4188216552734375	0		5.95927392578125	0.42260787963867186	0		-0.15535183715820314	5.93031640625	0		
0.01409959888458252	0.003334878921508789	0		0.5582505493164063	-2.56330126953125	0		-0.9967860107421875	-0.0549251823425293	0		-0.7148493041992188	-2.561990478515625	0		1.653656982421875	-1.217071533203125	0		3.26632275390625	-1.0319822998046875	0		4.723986328125	-0.40474462890625	0		5.95445849609375	0.43060147094726564	0		-0.12223469543457031	5.9367373046875	0		
-0.011806110382080078	0.0035615189075469973	0		0.5307208251953125	-2.537045166015625	0		-0.9988565063476562	-0.06703242492675782	0		-0.64764599609375	-2.55603466796875	0		1.688634033203125	-1.2266585693359375	0		3.283462890625	-1.029311767578125	0		4.72408154296875	-0.4048299865722656	0		5.9635458984375	0.43040463256835937	0		-0.17142134094238282	5.92027685546875	0		
-0.01879875946044922	-0.003468903064727783	0		0.5288173828125	-2.539139404296875	0		-1.0027944946289062	-0.0701124038696289	0		-0.7143531494140625	-2.543257568359375	0		1.6836517333984375	-1.2337015380859375	0		3.2698056640625	-1.0122210693359375	0		4.72237744140625	-0.3908897094726563	0		5.9765341796875	0.4221538696289063	0		-0.13631913757324218	5.92367333984375	0		
0.010362834930419921	1.068700011819601E-5	0		0.5269083251953125	-2.542233642578125	0		-0.9967523803710937	-0.07532818603515624	0		-0.639269287109375	-2.547407470703125	0		1.680731689453125	-1.2367725830078125	0		3.264033203125	-1.004239013671875	0		4.7124912109375	-0.39084027099609375	0		5.9547509765625	0.43037603759765625	0		-0.17131045532226563	5.920021484375	0		
-0.0185704345703125	-0.003723052978515625	0		0.4771885375976562	-2.531679443359375	0		-1.0656812744140625	-0.07852799224853516	0		-0.7019064331054687	-2.5306875	0		1.6537138671875	-1.2475186767578126	0		3.255282958984375	-0.9952174682617188	0		4.71366748046875	-0.3869415588378906	0		5.9597568359375	0.4222322082519531	0		-0.15510844421386719	5.9296748046875	0		
0.02756693458557129	-0.003476025104522705	0		0.5650053100585938	-2.5569951171875	0		-0.991572998046875	-0.08066944885253906	0		-0.691608154296875	-2.519959228515625	0		1.6469346923828125	-1.2415390625	0		3.28163427734375	-0.979672119140625	0		4.70507080078125	-0.366909423828125	0		5.9608671875	0.4211415710449219	0		-0.15307308959960939	5.92651708984375	0		
-0.011209317207336426	0.002921104907989502	0		0.5085249328613282	-2.53035107421875	0		-1.0095130004882813	-0.08656497955322266	0		-0.7013369750976562	-2.511961669921875	0		1.6791090087890626	-1.2400885009765625	0		3.255014892578125	-0.9624088134765625	0		4.69725390625	-0.36388916015625	0		5.9520166015625	0.42218704223632814	0		-0.12088296508789062	5.93395068359375	0		
0.014938048362731934	0.002437067985534668	0		0.5316022338867188	-2.537788818359375	0		-1.0074708251953124	-0.09473306274414063	0		-0.6971091918945312	-2.508155029296875	0		1.67113623046875	-1.2500950927734376	0		3.24424267578125	-0.9573609619140625	0		4.68332763671875	-0.36978582763671874	0		5.95216259765625	0.42211245727539065	0		-0.1359379425048828	5.923021484375	0		
